<?xml version="1.0" encoding="utf-8"?>
<!-- Generator: Adobe Illustrator 25.0.0, SVG Export Plug-In . SVG Version: 6.00 Build 0)  -->
<svg version="1.1" xmlns="http://www.w3.org/2000/svg" xmlns:xlink="http://www.w3.org/1999/xlink" x="0px" y="0px"
	 viewBox="0 0 252 54" style="enable-background:new 0 0 252 54;" xml:space="preserve">
<style type="text/css">
	.st0{fill:#FFFFFF;}
	.st1{fill:url(#SVGID_1_);}
	.st2{fill:url(#SVGID_2_);}
	.st3{fill:url(#SVGID_3_);}
	.st4{fill:url(#SVGID_4_);}
	.st5{fill:url(#SVGID_5_);}
	.st6{fill:url(#SVGID_6_);}
	.st7{fill:url(#SVGID_7_);}
</style>
<g id="Layer_1">
</g>
<g id="Layer_2">
	<g id="Layer_3">
		<rect x="-86.06" y="-32" width="360" height="113.53"/>
	</g>
	<g>
		<g>
			<linearGradient id="SVGID_1_" gradientUnits="userSpaceOnUse" x1="196.6615" y1="25.7343" x2="223.1196" y2="25.7343">
				<stop  offset="0" style="stop-color:#080055"/>
				<stop  offset="0.4" style="stop-color:#1552FF"/>
				<stop  offset="0.8" style="stop-color:#2EBEFF"/>
			</linearGradient>
			<path class="st1" d="M222.42,24.24l-10.89-9.32c-1.51-1.33-4.09-0.39-4.09,1.49v2.81h-8.88c-1.05,0-1.9,0.75-1.9,1.67v9.66
				c0,0.92,0.85,1.67,1.9,1.67h8.88v2.81c0,1.88,2.58,2.82,4.09,1.49l10.89-9.32C223.35,26.4,223.35,25.07,222.42,24.24z"/>
		</g>
		<g>
			<path class="st0" d="M28.14,35.66V15.8h10.13c1.95,0,3.54,0.43,4.78,1.28c1.45,1,2.17,2.44,2.17,4.31c0,1.11-0.26,2.1-0.78,2.98
				c-0.56,0.95-1.34,1.61-2.34,2v0.06c1.71,0.41,2.67,1.99,2.89,4.76c0.06,0.76,0.12,1.52,0.2,2.28c0.13,1.17,0.34,1.9,0.64,2.2
				h-5.12c-0.26-0.39-0.46-1.45-0.58-3.17c-0.09-1.28-0.29-2.21-0.58-2.78c-0.46-0.85-1.23-1.28-2.31-1.28h-3.92v7.23H28.14z
				 M33.32,19.95v4.48h4.34c1.59,0,2.39-0.78,2.39-2.34c0-1.43-0.87-2.14-2.61-2.14H33.32z"/>
			<path class="st0" d="M49.08,35.66V15.8h15.83v4.14H54.26v3.48h9.74v4.01h-9.74v3.78h10.93v4.45H49.08z"/>
			<path class="st0" d="M86.86,24.79v10.88h-3.34l-0.31-2.17c-1.22,1.73-3.07,2.59-5.54,2.59c-2.95,0-5.35-1-7.2-3
				c-1.8-1.95-2.7-4.4-2.7-7.34c0-2.95,0.91-5.41,2.74-7.39c1.83-1.97,4.21-2.96,7.16-2.96c2.26,0,4.22,0.58,5.87,1.72
				c1.85,1.3,2.89,3.12,3.12,5.45h-5.17c-0.08-0.83-0.48-1.5-1.22-1.99c-0.74-0.49-1.64-0.74-2.7-0.74c-1.56,0-2.74,0.61-3.56,1.84
				c-0.71,1.06-1.06,2.41-1.06,4.06c0,1.65,0.35,3,1.06,4.06c0.82,1.22,2,1.84,3.56,1.84c1.26,0,2.3-0.27,3.12-0.82
				c0.82-0.55,1.3-1.27,1.45-2.18h-3.62v-3.84H86.86z"/>
			<path class="st0" d="M91.06,35.66V15.8h5.17v19.86H91.06z"/>
			<path class="st0" d="M99.54,28.99h5.17c0.09,2.06,1.34,3.09,3.76,3.09c0.87,0,1.59-0.16,2.17-0.47c0.67-0.35,1-0.87,1-1.56
				c0-0.76-0.59-1.36-1.78-1.81c-1.3-0.35-2.61-0.71-3.92-1.08c-1.78-0.5-3.11-1.1-3.98-1.81c-1.22-0.98-1.84-2.29-1.84-3.92
				c0-2,0.88-3.55,2.64-4.65c1.5-0.93,3.32-1.39,5.45-1.39c2.19,0,4.01,0.51,5.45,1.53c1.65,1.15,2.48,2.77,2.5,4.87H111
				c0.04-0.83-0.29-1.46-0.97-1.86c-0.58-0.35-1.32-0.53-2.23-0.53c-1.67,0-2.5,0.57-2.5,1.7c0,0.65,0.6,1.18,1.81,1.59
				c1.32,0.33,2.63,0.68,3.95,1.03c1.74,0.48,3.06,1.08,3.95,1.81c1.21,0.98,1.81,2.29,1.81,3.92c0,2.34-0.9,4.07-2.7,5.2
				c-1.48,0.96-3.47,1.45-5.95,1.45s-4.49-0.55-6.01-1.64C100.43,33.2,99.56,31.38,99.54,28.99z"/>
			<path class="st0" d="M135.62,15.8v4.45h-5.92v15.41h-5.17V20.25h-5.92V15.8H135.62z"/>
			<path class="st0" d="M134.49,35.66l7.43-19.86h5.26l7.43,19.86h-5.4l-1.22-3.56h-6.93l-1.25,3.56H134.49z M144.5,21.31
				l-2.25,6.95h4.51l-2.2-6.95H144.5z"/>
			<path class="st0" d="M156.95,35.66V15.8h10.13c1.95,0,3.54,0.43,4.78,1.28c1.45,1,2.17,2.44,2.17,4.31c0,1.11-0.26,2.1-0.78,2.98
				c-0.56,0.95-1.34,1.61-2.34,2v0.06c1.71,0.41,2.67,1.99,2.89,4.76c0.06,0.76,0.12,1.52,0.2,2.28c0.13,1.17,0.34,1.9,0.64,2.2
				h-5.12c-0.26-0.39-0.46-1.45-0.58-3.17c-0.09-1.28-0.29-2.21-0.58-2.78c-0.46-0.85-1.23-1.28-2.31-1.28h-3.92v7.23H156.95z
				 M162.12,19.95v4.48h4.34c1.59,0,2.39-0.78,2.39-2.34c0-1.43-0.87-2.14-2.61-2.14H162.12z"/>
			<path class="st0" d="M193.48,15.8v4.45h-5.92v15.41h-5.17V20.25h-5.92V15.8H193.48z"/>
		</g>
	</g>
</g>
</svg>
