<svg xmlns="http://www.w3.org/2000/svg" xmlns:xlink="http://www.w3.org/1999/xlink" viewBox="0 0 252 54"><defs><style>.cls-1{fill:#fff;}.cls-2{fill:url(#linear-gradient);}</style><linearGradient id="linear-gradient" x1="185.85" y1="27" x2="241.1" y2="27" gradientUnits="userSpaceOnUse"><stop offset="0" stop-color="#080055"/><stop offset="0.4" stop-color="#1552ff"/><stop offset="0.8" stop-color="#2ebeff"/></linearGradient></defs><g id="Layer_2" data-name="Layer 2"><path class="cls-1" d="M37.66,30q-.54-6.59-4.6-7.55v-.09a7.25,7.25,0,0,0,3.71-3.18A9,9,0,0,0,38,14.41a7.83,7.83,0,0,0-3.44-6.84,13.13,13.13,0,0,0-7.6-2H10.9V37.06h8.21V25.58h6.23a3.83,3.83,0,0,1,3.66,2A12.18,12.18,0,0,1,29.93,32c.21,2.74.51,4.42.93,5H39c-.47-.47-.81-1.64-1-3.49C37.85,32.36,37.74,31.16,37.66,30ZM26,19.22H19.11V12.11h6.54c2.76,0,4.15,1.14,4.15,3.4C29.8,18,28.53,19.22,26,19.22Z"/><polygon class="cls-1" points="47.96 28.65 57.42 28.65 57.42 24.76 47.96 24.76 47.96 21.38 58.31 21.38 58.31 17.35 42.93 17.35 42.93 36.65 58.58 36.65 58.58 32.33 47.96 32.33 47.96 28.65"/><path class="cls-1" d="M71.16,29.81h3.51a3,3,0,0,1-1.41,2.12,5.24,5.24,0,0,1-3,.8A3.88,3.88,0,0,1,66.78,31a7,7,0,0,1-1-3.95,7,7,0,0,1,1-3.95,3.88,3.88,0,0,1,3.46-1.78,4.63,4.63,0,0,1,2.62.72,2.48,2.48,0,0,1,1.19,1.93h5a7,7,0,0,0-3-5.3,9.74,9.74,0,0,0-5.71-1.68,9.05,9.05,0,0,0-7,2.88A10.19,10.19,0,0,0,60.72,27a10.12,10.12,0,0,0,2.62,7.14,9.13,9.13,0,0,0,7,2.92,6.15,6.15,0,0,0,5.38-2.52l.3,2.11h3.25V26.08H71.16Z"/><rect class="cls-1" x="82.48" y="17.35" width="5.03" height="19.3"/><path class="cls-1" d="M104.92,26.78A10.6,10.6,0,0,0,101.08,25c-1.28-.35-2.56-.68-3.84-1s-1.75-.91-1.75-1.54q0-1.65,2.43-1.65a4.11,4.11,0,0,1,2.16.51,1.87,1.87,0,0,1,1,1.81h5a5.49,5.49,0,0,0-2.44-4.73,9,9,0,0,0-5.3-1.49A9.88,9.88,0,0,0,93,18.29a5,5,0,0,0-2.57,4.52,4.62,4.62,0,0,0,1.78,3.81,11,11,0,0,0,3.87,1.76l3.81,1.05c1.15.44,1.73,1,1.73,1.76a1.62,1.62,0,0,1-1,1.51,4.33,4.33,0,0,1-2.11.46c-2.35,0-3.56-1-3.65-3h-5a6.18,6.18,0,0,0,2.54,5.3,9.75,9.75,0,0,0,5.84,1.6,10.49,10.49,0,0,0,5.79-1.41,5.57,5.57,0,0,0,2.62-5A4.69,4.69,0,0,0,104.92,26.78Z"/><polygon class="cls-1" points="107.79 21.67 113.55 21.67 113.55 36.65 118.57 36.65 118.57 21.67 124.33 21.67 124.33 17.35 107.79 17.35 107.79 21.67"/><path class="cls-1" d="M131.79,17.35l-7.21,19.3h5.16L131,33.19h6.73l1.19,3.46h5.24l-7.22-19.3Zm.33,12.11,2.19-6.76h.05l2.14,6.76Z"/><path class="cls-1" d="M162,32.3q-.32-4-2.81-4.62v-.06a4.48,4.48,0,0,0,2.27-1.94,5.53,5.53,0,0,0,.76-2.9,4.79,4.79,0,0,0-2.11-4.19,8,8,0,0,0-4.65-1.24h-9.84v19.3h5v-7h3.81a2.34,2.34,0,0,1,2.24,1.25,7.35,7.35,0,0,1,.57,2.7,8.47,8.47,0,0,0,.57,3.08h5a4.12,4.12,0,0,1-.62-2.13C162.08,33.78,162,33,162,32.3Zm-7.13-6.57h-4.22V21.38h4c1.69,0,2.54.69,2.54,2.08A2,2,0,0,1,154.83,25.73Z"/><polygon class="cls-1" points="163.86 17.35 163.86 21.67 169.61 21.67 169.61 36.65 174.64 36.65 174.64 21.67 180.4 21.67 180.4 17.35 163.86 17.35"/><path class="cls-2" d="M239.81,23.9,219.93,4.6a4.37,4.37,0,0,0-7.47,3.09v5.83H189.32A3.47,3.47,0,0,0,185.85,17V37a3.47,3.47,0,0,0,3.47,3.47h23.14v5.83a4.37,4.37,0,0,0,7.47,3.09l19.88-19.3A4.39,4.39,0,0,0,239.81,23.9Z"/></g></svg>